<svg xmlns="http://www.w3.org/2000/svg" xmlns:xlink="http://www.w3.org/1999/xlink" width="1080" zoomAndPan="magnify" viewBox="0 0 810 809.999993" height="1080" preserveAspectRatio="xMidYMid meet" version="1.0"><defs><clipPath id="d6bf668ccb"><path d="M 663 399 L 798.636719 399 L 798.636719 535 L 663 535 Z M 663 399 " clip-rule="nonzero"/></clipPath><clipPath id="8abe7a0043"><path d="M 11.136719 371 L 144 371 L 144 504 L 11.136719 504 Z M 11.136719 371 " clip-rule="nonzero"/></clipPath></defs><path fill="#ffffff" d="M 562.894531 228.203125 L 562.894531 235.019531 C 562.894531 237.273438 564.730469 239.109375 566.980469 239.109375 C 569.246094 239.109375 571.070312 237.273438 571.070312 235.019531 L 571.070312 228.203125 C 571.070312 225.949219 569.246094 224.125 566.980469 224.125 C 564.730469 224.125 562.894531 225.949219 562.894531 228.203125 " fill-opacity="1" fill-rule="nonzero"/><path fill="#ffffff" d="M 562.894531 248.597656 L 562.894531 262.164062 C 562.894531 264.425781 564.730469 266.253906 566.980469 266.253906 C 569.246094 266.253906 571.070312 264.425781 571.070312 262.164062 L 571.070312 248.597656 C 571.070312 246.332031 569.246094 244.507812 566.980469 244.507812 C 564.730469 244.507812 562.894531 246.332031 562.894531 248.597656 Z M 562.894531 275.742188 L 562.894531 289.316406 C 562.894531 291.570312 564.730469 293.40625 566.980469 293.40625 C 569.246094 293.40625 571.070312 291.570312 571.070312 289.316406 L 571.070312 275.742188 C 571.070312 273.488281 569.246094 271.652344 566.980469 271.652344 C 564.730469 271.652344 562.894531 273.488281 562.894531 275.742188 Z M 562.894531 302.886719 L 562.894531 316.460938 C 562.894531 318.714844 564.730469 320.550781 566.980469 320.550781 C 569.246094 320.550781 571.070312 318.714844 571.070312 316.460938 L 571.070312 302.886719 C 571.070312 300.632812 569.246094 298.804688 566.980469 298.804688 C 564.730469 298.804688 562.894531 300.632812 562.894531 302.886719 Z M 562.894531 330.039062 L 562.894531 343.605469 C 562.894531 345.871094 564.730469 347.695312 566.980469 347.695312 C 569.246094 347.695312 571.070312 345.871094 571.070312 343.605469 L 571.070312 330.039062 C 571.070312 327.777344 569.246094 325.949219 566.980469 325.949219 C 564.730469 325.949219 562.894531 327.777344 562.894531 330.039062 Z M 562.894531 357.183594 L 562.894531 370.761719 C 562.894531 373.015625 564.730469 374.851562 566.980469 374.851562 C 569.246094 374.851562 571.070312 373.015625 571.070312 370.761719 L 571.070312 357.183594 C 571.070312 354.929688 569.246094 353.09375 566.980469 353.09375 C 564.730469 353.09375 562.894531 354.929688 562.894531 357.183594 Z M 562.894531 384.328125 L 562.894531 397.90625 C 562.894531 400.160156 564.730469 401.996094 566.980469 401.996094 C 569.246094 401.996094 571.070312 400.160156 571.070312 397.90625 L 571.070312 384.328125 C 571.070312 382.074219 569.246094 380.25 566.980469 380.25 C 564.730469 380.25 562.894531 382.074219 562.894531 384.328125 Z M 562.894531 411.480469 L 562.894531 425.050781 C 562.894531 427.3125 564.730469 429.140625 566.980469 429.140625 C 569.246094 429.140625 571.070312 427.3125 571.070312 425.050781 L 571.070312 411.480469 C 571.070312 409.21875 569.246094 407.394531 566.980469 407.394531 C 564.730469 407.394531 562.894531 409.21875 562.894531 411.480469 Z M 562.894531 438.625 L 562.894531 452.203125 C 562.894531 454.457031 564.730469 456.292969 566.980469 456.292969 C 569.246094 456.292969 571.070312 454.457031 571.070312 452.203125 L 571.070312 438.625 C 571.070312 436.371094 569.246094 434.539062 566.980469 434.539062 C 564.730469 434.539062 562.894531 436.371094 562.894531 438.625 Z M 562.894531 465.769531 L 562.894531 479.347656 C 562.894531 481.601562 564.730469 483.4375 566.980469 483.4375 C 569.246094 483.4375 571.070312 481.601562 571.070312 479.347656 L 571.070312 465.769531 C 571.070312 463.515625 569.246094 461.691406 566.980469 461.691406 C 564.730469 461.691406 562.894531 463.515625 562.894531 465.769531 " fill-opacity="1" fill-rule="nonzero"/><path fill="#ffffff" d="M 562.894531 492.925781 L 562.894531 499.730469 C 562.894531 501.992188 564.730469 503.820312 566.980469 503.820312 C 569.246094 503.820312 571.070312 501.992188 571.070312 499.730469 L 571.070312 492.925781 C 571.070312 490.660156 569.246094 488.835938 566.980469 488.835938 C 564.730469 488.835938 562.894531 490.660156 562.894531 492.925781 " fill-opacity="1" fill-rule="nonzero"/><path fill="#ffffff" d="M 277.941406 531.222656 L 277.941406 538.027344 C 277.941406 540.292969 279.769531 542.117188 282.03125 542.117188 C 284.285156 542.117188 286.117188 540.292969 286.117188 538.027344 L 286.117188 531.222656 C 286.117188 528.960938 284.285156 527.132812 282.03125 527.132812 C 279.769531 527.132812 277.941406 528.960938 277.941406 531.222656 " fill-opacity="1" fill-rule="nonzero"/><path fill="#ffffff" d="M 277.941406 551.605469 L 277.941406 565.183594 C 277.941406 567.4375 279.769531 569.273438 282.03125 569.273438 C 284.285156 569.273438 286.117188 567.4375 286.117188 565.183594 L 286.117188 551.605469 C 286.117188 549.351562 284.285156 547.515625 282.03125 547.515625 C 279.769531 547.515625 277.941406 549.351562 277.941406 551.605469 Z M 277.941406 578.75 L 277.941406 592.328125 C 277.941406 594.582031 279.769531 596.417969 282.03125 596.417969 C 284.285156 596.417969 286.117188 594.582031 286.117188 592.328125 L 286.117188 578.75 C 286.117188 576.496094 284.285156 574.671875 282.03125 574.671875 C 279.769531 574.671875 277.941406 576.496094 277.941406 578.75 Z M 277.941406 605.902344 L 277.941406 619.472656 C 277.941406 621.734375 279.769531 623.5625 282.03125 623.5625 C 284.285156 623.5625 286.117188 621.734375 286.117188 619.472656 L 286.117188 605.902344 C 286.117188 603.640625 284.285156 601.816406 282.03125 601.816406 C 279.769531 601.816406 277.941406 603.640625 277.941406 605.902344 Z M 277.941406 633.046875 L 277.941406 646.625 C 277.941406 648.878906 279.769531 650.714844 282.03125 650.714844 C 284.285156 650.714844 286.117188 648.878906 286.117188 646.625 L 286.117188 633.046875 C 286.117188 630.792969 284.285156 628.960938 282.03125 628.960938 C 279.769531 628.960938 277.941406 630.792969 277.941406 633.046875 Z M 277.941406 660.203125 L 277.941406 673.769531 C 277.941406 676.023438 279.769531 677.859375 282.03125 677.859375 C 284.285156 677.859375 286.117188 676.023438 286.117188 673.769531 L 286.117188 660.203125 C 286.117188 657.9375 284.285156 656.113281 282.03125 656.113281 C 279.769531 656.113281 277.941406 657.9375 277.941406 660.203125 Z M 277.941406 687.347656 L 277.941406 700.914062 C 277.941406 703.175781 279.769531 705.003906 282.03125 705.003906 C 284.285156 705.003906 286.117188 703.175781 286.117188 700.914062 L 286.117188 687.347656 C 286.117188 685.09375 284.285156 683.257812 282.03125 683.257812 C 279.769531 683.257812 277.941406 685.09375 277.941406 687.347656 Z M 277.941406 714.492188 L 277.941406 728.066406 C 277.941406 730.320312 279.769531 732.15625 282.03125 732.15625 C 284.285156 732.15625 286.117188 730.320312 286.117188 728.066406 L 286.117188 714.492188 C 286.117188 712.238281 284.285156 710.402344 282.03125 710.402344 C 279.769531 710.402344 277.941406 712.238281 277.941406 714.492188 Z M 277.941406 741.644531 L 277.941406 755.210938 C 277.941406 757.476562 279.769531 759.300781 282.03125 759.300781 C 284.285156 759.300781 286.117188 757.476562 286.117188 755.210938 L 286.117188 741.644531 C 286.117188 739.382812 284.285156 737.554688 282.03125 737.554688 C 279.769531 737.554688 277.941406 739.382812 277.941406 741.644531 Z M 277.941406 768.789062 L 277.941406 782.355469 C 277.941406 784.621094 279.769531 786.445312 282.03125 786.445312 C 284.285156 786.445312 286.117188 784.621094 286.117188 782.355469 L 286.117188 768.789062 C 286.117188 766.527344 284.285156 764.699219 282.03125 764.699219 C 279.769531 764.699219 277.941406 766.527344 277.941406 768.789062 " fill-opacity="1" fill-rule="nonzero"/><path fill="#ffffff" d="M 277.941406 795.933594 L 277.941406 802.75 C 277.941406 805.003906 279.769531 806.839844 282.03125 806.839844 C 284.285156 806.839844 286.117188 805.003906 286.117188 802.75 L 286.117188 795.933594 C 286.117188 793.679688 284.285156 791.84375 282.03125 791.84375 C 279.769531 791.84375 277.941406 793.679688 277.941406 795.933594 " fill-opacity="1" fill-rule="nonzero"/><path fill="#ffffff" d="M 465.800781 25.300781 L 465.800781 32.117188 C 465.800781 34.371094 467.632812 36.207031 469.886719 36.207031 C 472.148438 36.207031 473.976562 34.371094 473.976562 32.117188 L 473.976562 25.300781 C 473.976562 23.046875 472.148438 21.210938 469.886719 21.210938 C 467.632812 21.210938 465.800781 23.046875 465.800781 25.300781 " fill-opacity="1" fill-rule="nonzero"/><path fill="#ffffff" d="M 465.800781 45.230469 L 465.800781 58.34375 C 465.800781 60.605469 467.632812 62.433594 469.886719 62.433594 C 472.148438 62.433594 473.976562 60.605469 473.976562 58.34375 L 473.976562 45.230469 C 473.976562 42.976562 472.148438 41.140625 469.886719 41.140625 C 467.632812 41.140625 465.800781 42.976562 465.800781 45.230469 Z M 465.800781 71.457031 L 465.800781 84.570312 C 465.800781 86.832031 467.632812 88.660156 469.886719 88.660156 C 472.148438 88.660156 473.976562 86.832031 473.976562 84.570312 L 473.976562 71.457031 C 473.976562 69.203125 472.148438 67.367188 469.886719 67.367188 C 467.632812 67.367188 465.800781 69.203125 465.800781 71.457031 " fill-opacity="1" fill-rule="nonzero"/><path fill="#ffffff" d="M 465.800781 97.683594 L 465.800781 104.5 C 465.800781 106.761719 467.632812 108.589844 469.886719 108.589844 C 472.148438 108.589844 473.976562 106.761719 473.976562 104.5 L 473.976562 97.683594 C 473.976562 95.429688 472.148438 93.605469 469.886719 93.605469 C 467.632812 93.605469 465.800781 95.429688 465.800781 97.683594 " fill-opacity="1" fill-rule="nonzero"/><path fill="#ffffff" d="M 644.261719 298.921875 L 644.261719 305.726562 C 644.261719 307.980469 646.09375 309.816406 648.347656 309.816406 C 650.609375 309.816406 652.4375 307.980469 652.4375 305.726562 L 652.4375 298.921875 C 652.4375 296.660156 650.609375 294.832031 648.347656 294.832031 C 646.09375 294.832031 644.261719 296.660156 644.261719 298.921875 " fill-opacity="1" fill-rule="nonzero"/><path fill="#ffffff" d="M 644.261719 318.894531 L 644.261719 332.050781 C 644.261719 334.304688 646.09375 336.140625 648.347656 336.140625 C 650.609375 336.140625 652.4375 334.304688 652.4375 332.050781 L 652.4375 318.894531 C 652.4375 316.632812 650.609375 314.804688 648.347656 314.804688 C 646.09375 314.804688 644.261719 316.632812 644.261719 318.894531 Z M 644.261719 345.210938 L 644.261719 358.367188 C 644.261719 360.632812 646.09375 362.457031 648.347656 362.457031 C 650.609375 362.457031 652.4375 360.632812 652.4375 358.367188 L 652.4375 345.210938 C 652.4375 342.957031 650.609375 341.121094 648.347656 341.121094 C 646.09375 341.121094 644.261719 342.957031 644.261719 345.210938 Z M 644.261719 371.535156 L 644.261719 384.695312 C 644.261719 386.949219 646.09375 388.78125 648.347656 388.78125 C 650.609375 388.78125 652.4375 386.949219 652.4375 384.695312 L 652.4375 371.535156 C 652.4375 369.273438 650.609375 367.445312 648.347656 367.445312 C 646.09375 367.445312 644.261719 369.273438 644.261719 371.535156 Z M 644.261719 397.851562 L 644.261719 411.019531 C 644.261719 413.273438 646.09375 415.097656 648.347656 415.097656 C 650.609375 415.097656 652.4375 413.273438 652.4375 411.019531 L 652.4375 397.851562 C 652.4375 395.597656 650.609375 393.773438 648.347656 393.773438 C 646.09375 393.773438 644.261719 395.597656 644.261719 397.851562 Z M 644.261719 424.175781 L 644.261719 437.335938 C 644.261719 439.597656 646.09375 441.425781 648.347656 441.425781 C 650.609375 441.425781 652.4375 439.597656 652.4375 437.335938 L 652.4375 424.175781 C 652.4375 421.914062 650.609375 420.085938 648.347656 420.085938 C 646.09375 420.085938 644.261719 421.914062 644.261719 424.175781 " fill-opacity="1" fill-rule="nonzero"/><path fill="#ffffff" d="M 644.261719 450.5 L 644.261719 457.308594 C 644.261719 459.5625 646.09375 461.398438 648.347656 461.398438 C 650.609375 461.398438 652.4375 459.5625 652.4375 457.308594 L 652.4375 450.5 C 652.4375 448.238281 650.609375 446.414062 648.347656 446.414062 C 646.09375 446.414062 644.261719 448.238281 644.261719 450.5 " fill-opacity="1" fill-rule="nonzero"/><path fill="#ffffff" d="M 696.449219 406.394531 L 696.449219 413.210938 C 696.449219 415.464844 698.277344 417.289062 700.539062 417.289062 C 702.792969 417.289062 704.617188 415.464844 704.617188 413.210938 L 704.617188 406.394531 C 704.617188 404.140625 702.792969 402.304688 700.539062 402.304688 C 698.277344 402.304688 696.449219 404.140625 696.449219 406.394531 " fill-opacity="1" fill-rule="nonzero"/><path fill="#ffffff" d="M 696.449219 427.542969 L 696.449219 441.886719 C 696.449219 444.140625 698.277344 445.976562 700.539062 445.976562 C 702.792969 445.976562 704.617188 444.140625 704.617188 441.886719 L 704.617188 427.542969 C 704.617188 425.289062 702.792969 423.457031 700.539062 423.457031 C 698.277344 423.457031 696.449219 425.289062 696.449219 427.542969 Z M 696.449219 456.222656 L 696.449219 470.5625 C 696.449219 472.828125 698.277344 474.652344 700.539062 474.652344 C 702.792969 474.652344 704.617188 472.828125 704.617188 470.5625 L 704.617188 456.222656 C 704.617188 453.96875 702.792969 452.140625 700.539062 452.140625 C 698.277344 452.140625 696.449219 453.96875 696.449219 456.222656 Z M 696.449219 484.90625 L 696.449219 499.242188 C 696.449219 501.503906 698.277344 503.328125 700.539062 503.328125 C 702.792969 503.328125 704.617188 501.503906 704.617188 499.242188 L 704.617188 484.90625 C 704.617188 482.644531 702.792969 480.816406 700.539062 480.816406 C 698.277344 480.816406 696.449219 482.644531 696.449219 484.90625 Z M 696.449219 513.582031 L 696.449219 527.917969 C 696.449219 530.179688 698.277344 532.007812 700.539062 532.007812 C 702.792969 532.007812 704.617188 530.179688 704.617188 527.917969 L 704.617188 513.582031 C 704.617188 511.320312 702.792969 509.496094 700.539062 509.496094 C 698.277344 509.496094 696.449219 511.320312 696.449219 513.582031 Z M 696.449219 542.261719 L 696.449219 556.59375 C 696.449219 558.859375 698.277344 560.683594 700.539062 560.683594 C 702.792969 560.683594 704.617188 558.859375 704.617188 556.59375 L 704.617188 542.261719 C 704.617188 540.007812 702.792969 538.171875 700.539062 538.171875 C 698.277344 538.171875 696.449219 540.007812 696.449219 542.261719 Z M 696.449219 570.9375 L 696.449219 585.28125 C 696.449219 587.535156 698.277344 589.359375 700.539062 589.359375 C 702.792969 589.359375 704.617188 587.535156 704.617188 585.28125 L 704.617188 570.9375 C 704.617188 568.683594 702.792969 566.847656 700.539062 566.847656 C 698.277344 566.847656 696.449219 568.683594 696.449219 570.9375 Z M 696.449219 599.613281 L 696.449219 613.957031 C 696.449219 616.210938 698.277344 618.039062 700.539062 618.039062 C 702.792969 618.039062 704.617188 616.210938 704.617188 613.957031 L 704.617188 599.613281 C 704.617188 597.359375 702.792969 595.523438 700.539062 595.523438 C 698.277344 595.523438 696.449219 597.359375 696.449219 599.613281 Z M 696.449219 628.292969 L 696.449219 642.632812 C 696.449219 644.886719 698.277344 646.722656 700.539062 646.722656 C 702.792969 646.722656 704.617188 644.886719 704.617188 642.632812 L 704.617188 628.292969 C 704.617188 626.039062 702.792969 624.203125 700.539062 624.203125 C 698.277344 624.203125 696.449219 626.039062 696.449219 628.292969 " fill-opacity="1" fill-rule="nonzero"/><path fill="#ffffff" d="M 696.449219 656.96875 L 696.449219 663.785156 C 696.449219 666.039062 698.277344 667.871094 700.539062 667.871094 C 702.792969 667.871094 704.617188 666.039062 704.617188 663.785156 L 704.617188 656.96875 C 704.617188 654.714844 702.792969 652.886719 700.539062 652.886719 C 698.277344 652.886719 696.449219 654.714844 696.449219 656.96875 " fill-opacity="1" fill-rule="nonzero"/><path fill="#ffffff" d="M 462.835938 547.632812 L 462.835938 554.449219 C 462.835938 556.703125 464.667969 558.527344 466.921875 558.527344 C 469.183594 558.527344 471.011719 556.703125 471.011719 554.449219 L 471.011719 547.632812 C 471.011719 545.371094 469.183594 543.542969 466.921875 543.542969 C 464.667969 543.542969 462.835938 545.371094 462.835938 547.632812 " fill-opacity="1" fill-rule="nonzero"/><path fill="#ffffff" d="M 462.835938 568.78125 L 462.835938 583.125 C 462.835938 585.378906 464.667969 587.214844 466.921875 587.214844 C 469.183594 587.214844 471.011719 585.378906 471.011719 583.125 L 471.011719 568.78125 C 471.011719 566.527344 469.183594 564.691406 466.921875 564.691406 C 464.667969 564.691406 462.835938 566.527344 462.835938 568.78125 Z M 462.835938 597.457031 L 462.835938 611.800781 C 462.835938 614.054688 464.667969 615.890625 466.921875 615.890625 C 469.183594 615.890625 471.011719 614.054688 471.011719 611.800781 L 471.011719 597.457031 C 471.011719 595.203125 469.183594 593.371094 466.921875 593.371094 C 464.667969 593.371094 462.835938 595.203125 462.835938 597.457031 Z M 462.835938 626.136719 L 462.835938 640.476562 C 462.835938 642.730469 464.667969 644.566406 466.921875 644.566406 C 469.183594 644.566406 471.011719 642.730469 471.011719 640.476562 L 471.011719 626.136719 C 471.011719 623.882812 469.183594 622.054688 466.921875 622.054688 C 464.667969 622.054688 462.835938 623.882812 462.835938 626.136719 Z M 462.835938 654.8125 L 462.835938 669.15625 C 462.835938 671.417969 464.667969 673.246094 466.921875 673.246094 C 469.183594 673.246094 471.011719 671.417969 471.011719 669.15625 L 471.011719 654.8125 C 471.011719 652.558594 469.183594 650.730469 466.921875 650.730469 C 464.667969 650.730469 462.835938 652.558594 462.835938 654.8125 Z M 462.835938 683.5 L 462.835938 697.832031 C 462.835938 700.085938 464.667969 701.921875 466.921875 701.921875 C 469.183594 701.921875 471.011719 700.085938 471.011719 697.832031 L 471.011719 683.5 C 471.011719 681.234375 469.183594 679.410156 466.921875 679.410156 C 464.667969 679.410156 462.835938 681.234375 462.835938 683.5 Z M 462.835938 712.175781 L 462.835938 726.507812 C 462.835938 728.773438 464.667969 730.597656 466.921875 730.597656 C 469.183594 730.597656 471.011719 728.773438 471.011719 726.507812 L 471.011719 712.175781 C 471.011719 709.914062 469.183594 708.085938 466.921875 708.085938 C 464.667969 708.085938 462.835938 709.914062 462.835938 712.175781 Z M 462.835938 740.851562 L 462.835938 755.195312 C 462.835938 757.449219 464.667969 759.273438 466.921875 759.273438 C 469.183594 759.273438 471.011719 757.449219 471.011719 755.195312 L 471.011719 740.851562 C 471.011719 738.589844 469.183594 736.761719 466.921875 736.761719 C 464.667969 736.761719 462.835938 738.589844 462.835938 740.851562 Z M 462.835938 769.527344 L 462.835938 783.871094 C 462.835938 786.125 464.667969 787.953125 466.921875 787.953125 C 469.183594 787.953125 471.011719 786.125 471.011719 783.871094 L 471.011719 769.527344 C 471.011719 767.265625 469.183594 765.441406 466.921875 765.441406 C 464.667969 765.441406 462.835938 767.265625 462.835938 769.527344 " fill-opacity="1" fill-rule="nonzero"/><path fill="#ffffff" d="M 462.835938 798.207031 L 462.835938 805.019531 C 462.835938 807.273438 464.667969 809.109375 466.921875 809.109375 C 469.183594 809.109375 471.011719 807.273438 471.011719 805.019531 L 471.011719 798.207031 C 471.011719 795.953125 469.183594 794.117188 466.921875 794.117188 C 464.667969 794.117188 462.835938 795.953125 462.835938 798.207031 " fill-opacity="1" fill-rule="nonzero"/><path fill="#ffffff" d="M 727.285156 140.527344 L 727.285156 147.339844 C 727.285156 149.59375 729.109375 151.421875 731.371094 151.421875 C 733.625 151.421875 735.460938 149.59375 735.460938 147.339844 L 735.460938 140.527344 C 735.460938 138.261719 733.625 136.4375 731.371094 136.4375 C 729.109375 136.4375 727.285156 138.261719 727.285156 140.527344 " fill-opacity="1" fill-rule="nonzero"/><path fill="#ffffff" d="M 727.285156 161.148438 L 727.285156 174.957031 C 727.285156 177.21875 729.109375 179.046875 731.371094 179.046875 C 733.625 179.046875 735.460938 177.21875 735.460938 174.957031 L 735.460938 161.148438 C 735.460938 158.894531 733.625 157.058594 731.371094 157.058594 C 729.109375 157.058594 727.285156 158.894531 727.285156 161.148438 Z M 727.285156 188.773438 L 727.285156 202.582031 C 727.285156 204.847656 729.109375 206.671875 731.371094 206.671875 C 733.625 206.671875 735.460938 204.847656 735.460938 202.582031 L 735.460938 188.773438 C 735.460938 186.511719 733.625 184.6875 731.371094 184.6875 C 729.109375 184.6875 727.285156 186.511719 727.285156 188.773438 Z M 727.285156 216.402344 L 727.285156 230.210938 C 727.285156 232.464844 729.109375 234.296875 731.371094 234.296875 C 733.625 234.296875 735.460938 232.464844 735.460938 230.210938 L 735.460938 216.402344 C 735.460938 214.136719 733.625 212.3125 731.371094 212.3125 C 729.109375 212.3125 727.285156 214.136719 727.285156 216.402344 " fill-opacity="1" fill-rule="nonzero"/><path fill="#ffffff" d="M 727.285156 244.027344 L 727.285156 250.832031 C 727.285156 253.085938 729.109375 254.921875 731.371094 254.921875 C 733.625 254.921875 735.460938 253.085938 735.460938 250.832031 L 735.460938 244.027344 C 735.460938 241.761719 733.625 239.9375 731.371094 239.9375 C 729.109375 239.9375 727.285156 241.761719 727.285156 244.027344 " fill-opacity="1" fill-rule="nonzero"/><path fill="#ffffff" d="M 640.421875 612.871094 L 640.421875 619.6875 C 640.421875 621.941406 642.257812 623.765625 644.511719 623.765625 C 646.773438 623.765625 648.597656 621.941406 648.597656 619.6875 L 648.597656 612.871094 C 648.597656 610.617188 646.773438 608.78125 644.511719 608.78125 C 642.257812 608.78125 640.421875 610.617188 640.421875 612.871094 " fill-opacity="1" fill-rule="nonzero"/><path fill="#ffffff" d="M 640.421875 631.097656 L 640.421875 642.519531 C 640.421875 644.773438 642.257812 646.609375 644.511719 646.609375 C 646.773438 646.609375 648.597656 644.773438 648.597656 642.519531 L 648.597656 631.097656 C 648.597656 628.84375 646.773438 627.007812 644.511719 627.007812 C 642.257812 627.007812 640.421875 628.84375 640.421875 631.097656 Z M 640.421875 653.9375 L 640.421875 665.351562 C 640.421875 667.605469 642.257812 669.441406 644.511719 669.441406 C 646.773438 669.441406 648.597656 667.605469 648.597656 665.351562 L 648.597656 653.9375 C 648.597656 651.675781 646.773438 649.851562 644.511719 649.851562 C 642.257812 649.851562 640.421875 651.675781 640.421875 653.9375 " fill-opacity="1" fill-rule="nonzero"/><path fill="#ffffff" d="M 640.421875 676.773438 L 640.421875 683.578125 C 640.421875 685.839844 642.257812 687.667969 644.511719 687.667969 C 646.773438 687.667969 648.597656 685.839844 648.597656 683.578125 L 648.597656 676.773438 C 648.597656 674.519531 646.773438 672.683594 644.511719 672.683594 C 642.257812 672.683594 640.421875 674.519531 640.421875 676.773438 " fill-opacity="1" fill-rule="nonzero"/><path fill="#ffffff" d="M 614.273438 86.78125 L 614.273438 93.59375 C 614.273438 95.859375 616.109375 97.683594 618.363281 97.683594 C 620.625 97.683594 622.449219 95.859375 622.449219 93.59375 L 622.449219 86.78125 C 622.449219 84.527344 620.625 82.699219 618.363281 82.699219 C 616.109375 82.699219 614.273438 84.527344 614.273438 86.78125 " fill-opacity="1" fill-rule="nonzero"/><path fill="#ffffff" d="M 614.273438 108.046875 L 614.273438 122.484375 C 614.273438 124.75 616.109375 126.574219 618.363281 126.574219 C 620.625 126.574219 622.449219 124.75 622.449219 122.484375 L 622.449219 108.046875 C 622.449219 105.78125 620.625 103.957031 618.363281 103.957031 C 616.109375 103.957031 614.273438 105.78125 614.273438 108.046875 Z M 614.273438 136.9375 L 614.273438 151.386719 C 614.273438 153.640625 616.109375 155.464844 618.363281 155.464844 C 620.625 155.464844 622.449219 153.640625 622.449219 151.386719 L 622.449219 136.9375 C 622.449219 134.683594 620.625 132.847656 618.363281 132.847656 C 616.109375 132.847656 614.273438 134.683594 614.273438 136.9375 Z M 614.273438 165.828125 L 614.273438 180.277344 C 614.273438 182.53125 616.109375 184.367188 618.363281 184.367188 C 620.625 184.367188 622.449219 182.53125 622.449219 180.277344 L 622.449219 165.828125 C 622.449219 163.574219 620.625 161.738281 618.363281 161.738281 C 616.109375 161.738281 614.273438 163.574219 614.273438 165.828125 Z M 614.273438 194.71875 L 614.273438 209.167969 C 614.273438 211.421875 616.109375 213.257812 618.363281 213.257812 C 620.625 213.257812 622.449219 211.421875 622.449219 209.167969 L 622.449219 194.71875 C 622.449219 192.464844 620.625 190.636719 618.363281 190.636719 C 616.109375 190.636719 614.273438 192.464844 614.273438 194.71875 Z M 614.273438 223.617188 L 614.273438 238.058594 C 614.273438 240.320312 616.109375 242.148438 618.363281 242.148438 C 620.625 242.148438 622.449219 240.320312 622.449219 238.058594 L 622.449219 223.617188 C 622.449219 221.355469 620.625 219.527344 618.363281 219.527344 C 616.109375 219.527344 614.273438 221.355469 614.273438 223.617188 " fill-opacity="1" fill-rule="nonzero"/><path fill="#ffffff" d="M 614.273438 252.507812 L 614.273438 259.324219 C 614.273438 261.578125 616.109375 263.402344 618.363281 263.402344 C 620.625 263.402344 622.449219 261.578125 622.449219 259.324219 L 622.449219 252.507812 C 622.449219 250.253906 620.625 248.417969 618.363281 248.417969 C 616.109375 248.417969 614.273438 250.253906 614.273438 252.507812 " fill-opacity="1" fill-rule="nonzero"/><path fill="#ffffff" d="M 657.386719 10.414062 L 657.386719 17.230469 C 657.386719 19.484375 659.214844 21.320312 661.476562 21.320312 C 663.730469 21.320312 665.5625 19.484375 665.5625 17.230469 L 665.5625 10.414062 C 665.5625 8.160156 663.730469 6.335938 661.476562 6.335938 C 659.214844 6.335938 657.386719 8.160156 657.386719 10.414062 " fill-opacity="1" fill-rule="nonzero"/><path fill="#ffffff" d="M 657.386719 30.34375 L 657.386719 43.457031 C 657.386719 45.710938 659.214844 47.546875 661.476562 47.546875 C 663.730469 47.546875 665.5625 45.710938 665.5625 43.457031 L 665.5625 30.34375 C 665.5625 28.089844 663.730469 26.253906 661.476562 26.253906 C 659.214844 26.253906 657.386719 28.089844 657.386719 30.34375 Z M 657.386719 56.570312 L 657.386719 69.683594 C 657.386719 71.945312 659.214844 73.773438 661.476562 73.773438 C 663.730469 73.773438 665.5625 71.945312 665.5625 69.683594 L 665.5625 56.570312 C 665.5625 54.316406 663.730469 52.480469 661.476562 52.480469 C 659.214844 52.480469 657.386719 54.316406 657.386719 56.570312 " fill-opacity="1" fill-rule="nonzero"/><path fill="#ffffff" d="M 657.386719 82.796875 L 657.386719 89.613281 C 657.386719 91.867188 659.214844 93.703125 661.476562 93.703125 C 663.730469 93.703125 665.5625 91.867188 665.5625 89.613281 L 665.5625 82.796875 C 665.5625 80.542969 663.730469 78.707031 661.476562 78.707031 C 659.214844 78.707031 657.386719 80.542969 657.386719 82.796875 " fill-opacity="1" fill-rule="nonzero"/><path fill="#ffffff" d="M 767.609375 324.375 L 767.609375 331.179688 C 767.609375 333.441406 769.4375 335.269531 771.699219 335.269531 C 773.953125 335.269531 775.777344 333.441406 775.777344 331.179688 L 775.777344 324.375 C 775.777344 322.121094 773.953125 320.285156 771.699219 320.285156 C 769.4375 320.285156 767.609375 322.121094 767.609375 324.375 " fill-opacity="1" fill-rule="nonzero"/><path fill="#ffffff" d="M 767.609375 344.273438 L 767.609375 357.371094 C 767.609375 359.632812 769.4375 361.460938 771.699219 361.460938 C 773.953125 361.460938 775.777344 359.632812 775.777344 357.371094 L 775.777344 344.273438 C 775.777344 342.019531 773.953125 340.195312 771.699219 340.195312 C 769.4375 340.195312 767.609375 342.019531 767.609375 344.273438 Z M 767.609375 370.464844 L 767.609375 383.5625 C 767.609375 385.816406 769.4375 387.652344 771.699219 387.652344 C 773.953125 387.652344 775.777344 385.816406 775.777344 383.5625 L 775.777344 370.464844 C 775.777344 368.210938 773.953125 366.378906 771.699219 366.378906 C 769.4375 366.378906 767.609375 368.210938 767.609375 370.464844 Z M 767.609375 396.65625 L 767.609375 409.753906 C 767.609375 412.007812 769.4375 413.832031 771.699219 413.832031 C 773.953125 413.832031 775.777344 412.007812 775.777344 409.753906 L 775.777344 396.65625 C 775.777344 394.394531 773.953125 392.570312 771.699219 392.570312 C 769.4375 392.570312 767.609375 394.394531 767.609375 396.65625 Z M 767.609375 422.839844 L 767.609375 435.9375 C 767.609375 438.191406 769.4375 440.023438 771.699219 440.023438 C 773.953125 440.023438 775.777344 438.191406 775.777344 435.9375 L 775.777344 422.839844 C 775.777344 420.585938 773.953125 418.761719 771.699219 418.761719 C 769.4375 418.761719 767.609375 420.585938 767.609375 422.839844 Z M 767.609375 449.03125 L 767.609375 462.128906 C 767.609375 464.382812 769.4375 466.214844 771.699219 466.214844 C 773.953125 466.214844 775.777344 464.382812 775.777344 462.128906 L 775.777344 449.03125 C 775.777344 446.777344 773.953125 444.941406 771.699219 444.941406 C 769.4375 444.941406 767.609375 446.777344 767.609375 449.03125 Z M 767.609375 475.222656 L 767.609375 488.320312 C 767.609375 490.574219 769.4375 492.398438 771.699219 492.398438 C 773.953125 492.398438 775.777344 490.574219 775.777344 488.320312 L 775.777344 475.222656 C 775.777344 472.960938 773.953125 471.132812 771.699219 471.132812 C 769.4375 471.132812 767.609375 472.960938 767.609375 475.222656 " fill-opacity="1" fill-rule="nonzero"/><path fill="#ffffff" d="M 767.609375 501.40625 L 767.609375 508.222656 C 767.609375 510.476562 769.4375 512.308594 771.699219 512.308594 C 773.953125 512.308594 775.777344 510.476562 775.777344 508.222656 L 775.777344 501.40625 C 775.777344 499.152344 773.953125 497.324219 771.699219 497.324219 C 769.4375 497.324219 767.609375 499.152344 767.609375 501.40625 " fill-opacity="1" fill-rule="nonzero"/><path fill="#ffffff" d="M 720.203125 711.871094 L 720.203125 718.679688 C 720.203125 720.933594 722.039062 722.765625 724.289062 722.765625 C 726.554688 722.765625 728.378906 720.933594 728.378906 718.679688 L 728.378906 711.871094 C 728.378906 709.609375 726.554688 707.773438 724.289062 707.773438 C 722.039062 707.773438 720.203125 709.609375 720.203125 711.871094 " fill-opacity="1" fill-rule="nonzero"/><path fill="#ffffff" d="M 720.203125 730.660156 L 720.203125 742.640625 C 720.203125 744.90625 722.039062 746.730469 724.289062 746.730469 C 726.554688 746.730469 728.378906 744.90625 728.378906 742.640625 L 728.378906 730.660156 C 728.378906 728.40625 726.554688 726.570312 724.289062 726.570312 C 722.039062 726.570312 720.203125 728.40625 720.203125 730.660156 Z M 720.203125 754.625 L 720.203125 766.617188 C 720.203125 768.871094 722.039062 770.695312 724.289062 770.695312 C 726.554688 770.695312 728.378906 768.871094 728.378906 766.617188 L 728.378906 754.625 C 728.378906 752.371094 726.554688 750.535156 724.289062 750.535156 C 722.039062 750.535156 720.203125 752.371094 720.203125 754.625 " fill-opacity="1" fill-rule="nonzero"/><path fill="#ffffff" d="M 720.203125 778.597656 L 720.203125 785.402344 C 720.203125 787.667969 722.039062 789.492188 724.289062 789.492188 C 726.554688 789.492188 728.378906 787.667969 728.378906 785.402344 L 728.378906 778.597656 C 728.378906 776.335938 726.554688 774.507812 724.289062 774.507812 C 722.039062 774.507812 720.203125 776.335938 720.203125 778.597656 " fill-opacity="1" fill-rule="nonzero"/><path fill="#ffffff" d="M 238.703125 228.203125 L 238.703125 235.019531 C 238.703125 237.273438 240.527344 239.109375 242.789062 239.109375 C 245.042969 239.109375 246.878906 237.273438 246.878906 235.019531 L 246.878906 228.203125 C 246.878906 225.949219 245.042969 224.125 242.789062 224.125 C 240.527344 224.125 238.703125 225.949219 238.703125 228.203125 " fill-opacity="1" fill-rule="nonzero"/><path fill="#ffffff" d="M 238.703125 248.597656 L 238.703125 262.164062 C 238.703125 264.425781 240.527344 266.253906 242.789062 266.253906 C 245.042969 266.253906 246.878906 264.425781 246.878906 262.164062 L 246.878906 248.597656 C 246.878906 246.332031 245.042969 244.507812 242.789062 244.507812 C 240.527344 244.507812 238.703125 246.332031 238.703125 248.597656 Z M 238.703125 275.742188 L 238.703125 289.316406 C 238.703125 291.570312 240.527344 293.40625 242.789062 293.40625 C 245.042969 293.40625 246.878906 291.570312 246.878906 289.316406 L 246.878906 275.742188 C 246.878906 273.488281 245.042969 271.652344 242.789062 271.652344 C 240.527344 271.652344 238.703125 273.488281 238.703125 275.742188 Z M 238.703125 302.886719 L 238.703125 316.460938 C 238.703125 318.714844 240.527344 320.550781 242.789062 320.550781 C 245.042969 320.550781 246.878906 318.714844 246.878906 316.460938 L 246.878906 302.886719 C 246.878906 300.632812 245.042969 298.804688 242.789062 298.804688 C 240.527344 298.804688 238.703125 300.632812 238.703125 302.886719 Z M 238.703125 330.039062 L 238.703125 343.605469 C 238.703125 345.871094 240.527344 347.695312 242.789062 347.695312 C 245.042969 347.695312 246.878906 345.871094 246.878906 343.605469 L 246.878906 330.039062 C 246.878906 327.777344 245.042969 325.949219 242.789062 325.949219 C 240.527344 325.949219 238.703125 327.777344 238.703125 330.039062 Z M 238.703125 357.183594 L 238.703125 370.761719 C 238.703125 373.015625 240.527344 374.851562 242.789062 374.851562 C 245.042969 374.851562 246.878906 373.015625 246.878906 370.761719 L 246.878906 357.183594 C 246.878906 354.929688 245.042969 353.09375 242.789062 353.09375 C 240.527344 353.09375 238.703125 354.929688 238.703125 357.183594 Z M 238.703125 384.328125 L 238.703125 397.90625 C 238.703125 400.160156 240.527344 401.996094 242.789062 401.996094 C 245.042969 401.996094 246.878906 400.160156 246.878906 397.90625 L 246.878906 384.328125 C 246.878906 382.074219 245.042969 380.25 242.789062 380.25 C 240.527344 380.25 238.703125 382.074219 238.703125 384.328125 Z M 238.703125 411.480469 L 238.703125 425.050781 C 238.703125 427.3125 240.527344 429.140625 242.789062 429.140625 C 245.042969 429.140625 246.878906 427.3125 246.878906 425.050781 L 246.878906 411.480469 C 246.878906 409.21875 245.042969 407.394531 242.789062 407.394531 C 240.527344 407.394531 238.703125 409.21875 238.703125 411.480469 Z M 238.703125 438.625 L 238.703125 452.203125 C 238.703125 454.457031 240.527344 456.292969 242.789062 456.292969 C 245.042969 456.292969 246.878906 454.457031 246.878906 452.203125 L 246.878906 438.625 C 246.878906 436.371094 245.042969 434.539062 242.789062 434.539062 C 240.527344 434.539062 238.703125 436.371094 238.703125 438.625 Z M 238.703125 465.769531 L 238.703125 479.347656 C 238.703125 481.601562 240.527344 483.4375 242.789062 483.4375 C 245.042969 483.4375 246.878906 481.601562 246.878906 479.347656 L 246.878906 465.769531 C 246.878906 463.515625 245.042969 461.691406 242.789062 461.691406 C 240.527344 461.691406 238.703125 463.515625 238.703125 465.769531 " fill-opacity="1" fill-rule="nonzero"/><path fill="#ffffff" d="M 238.703125 492.925781 L 238.703125 499.730469 C 238.703125 501.992188 240.527344 503.820312 242.789062 503.820312 C 245.042969 503.820312 246.878906 501.992188 246.878906 499.730469 L 246.878906 492.925781 C 246.878906 490.660156 245.042969 488.835938 242.789062 488.835938 C 240.527344 488.835938 238.703125 490.660156 238.703125 492.925781 " fill-opacity="1" fill-rule="nonzero"/><path fill="#ffffff" d="M 335.789062 4.757812 L 335.789062 11.574219 C 335.789062 13.828125 337.625 15.664062 339.875 15.664062 C 342.136719 15.664062 343.964844 13.828125 343.964844 11.574219 L 343.964844 4.757812 C 343.964844 2.503906 342.136719 0.667969 339.875 0.667969 C 337.625 0.667969 335.789062 2.503906 335.789062 4.757812 " fill-opacity="1" fill-rule="nonzero"/><path fill="#ffffff" d="M 335.789062 24.6875 L 335.789062 37.800781 C 335.789062 40.0625 337.625 41.890625 339.875 41.890625 C 342.136719 41.890625 343.964844 40.0625 343.964844 37.800781 L 343.964844 24.6875 C 343.964844 22.433594 342.136719 20.597656 339.875 20.597656 C 337.625 20.597656 335.789062 22.433594 335.789062 24.6875 Z M 335.789062 50.914062 L 335.789062 64.027344 C 335.789062 66.289062 337.625 68.117188 339.875 68.117188 C 342.136719 68.117188 343.964844 66.289062 343.964844 64.027344 L 343.964844 50.914062 C 343.964844 48.660156 342.136719 46.824219 339.875 46.824219 C 337.625 46.824219 335.789062 48.660156 335.789062 50.914062 " fill-opacity="1" fill-rule="nonzero"/><path fill="#ffffff" d="M 335.789062 77.148438 L 335.789062 83.957031 C 335.789062 86.210938 337.625 88.046875 339.875 88.046875 C 342.136719 88.046875 343.964844 86.210938 343.964844 83.957031 L 343.964844 77.148438 C 343.964844 74.886719 342.136719 73.0625 339.875 73.0625 C 337.625 73.0625 335.789062 74.886719 335.789062 77.148438 " fill-opacity="1" fill-rule="nonzero"/><path fill="#ffffff" d="M 157.328125 298.921875 L 157.328125 305.726562 C 157.328125 307.980469 159.164062 309.816406 161.414062 309.816406 C 163.679688 309.816406 165.503906 307.980469 165.503906 305.726562 L 165.503906 298.921875 C 165.503906 296.660156 163.679688 294.832031 161.414062 294.832031 C 159.164062 294.832031 157.328125 296.660156 157.328125 298.921875 " fill-opacity="1" fill-rule="nonzero"/><path fill="#ffffff" d="M 157.328125 318.894531 L 157.328125 332.050781 C 157.328125 334.304688 159.164062 336.140625 161.414062 336.140625 C 163.679688 336.140625 165.503906 334.304688 165.503906 332.050781 L 165.503906 318.894531 C 165.503906 316.632812 163.679688 314.804688 161.414062 314.804688 C 159.164062 314.804688 157.328125 316.632812 157.328125 318.894531 Z M 157.328125 345.210938 L 157.328125 358.367188 C 157.328125 360.632812 159.164062 362.457031 161.414062 362.457031 C 163.679688 362.457031 165.503906 360.632812 165.503906 358.367188 L 165.503906 345.210938 C 165.503906 342.957031 163.679688 341.121094 161.414062 341.121094 C 159.164062 341.121094 157.328125 342.957031 157.328125 345.210938 Z M 157.328125 371.535156 L 157.328125 384.695312 C 157.328125 386.949219 159.164062 388.78125 161.414062 388.78125 C 163.679688 388.78125 165.503906 386.949219 165.503906 384.695312 L 165.503906 371.535156 C 165.503906 369.273438 163.679688 367.445312 161.414062 367.445312 C 159.164062 367.445312 157.328125 369.273438 157.328125 371.535156 Z M 157.328125 397.851562 L 157.328125 411.019531 C 157.328125 413.273438 159.164062 415.097656 161.414062 415.097656 C 163.679688 415.097656 165.503906 413.273438 165.503906 411.019531 L 165.503906 397.851562 C 165.503906 395.597656 163.679688 393.773438 161.414062 393.773438 C 159.164062 393.773438 157.328125 395.597656 157.328125 397.851562 Z M 157.328125 424.175781 L 157.328125 437.335938 C 157.328125 439.597656 159.164062 441.425781 161.414062 441.425781 C 163.679688 441.425781 165.503906 439.597656 165.503906 437.335938 L 165.503906 424.175781 C 165.503906 421.914062 163.679688 420.085938 161.414062 420.085938 C 159.164062 420.085938 157.328125 421.914062 157.328125 424.175781 " fill-opacity="1" fill-rule="nonzero"/><path fill="#ffffff" d="M 157.328125 450.5 L 157.328125 457.308594 C 157.328125 459.5625 159.164062 461.398438 161.414062 461.398438 C 163.679688 461.398438 165.503906 459.5625 165.503906 457.308594 L 165.503906 450.5 C 165.503906 448.238281 163.679688 446.414062 161.414062 446.414062 C 159.164062 446.414062 157.328125 448.238281 157.328125 450.5 " fill-opacity="1" fill-rule="nonzero"/><path fill="#ffffff" d="M 105.148438 406.394531 L 105.148438 413.210938 C 105.148438 415.464844 106.972656 417.289062 109.234375 417.289062 C 111.488281 417.289062 113.324219 415.464844 113.324219 413.210938 L 113.324219 406.394531 C 113.324219 404.140625 111.488281 402.304688 109.234375 402.304688 C 106.972656 402.304688 105.148438 404.140625 105.148438 406.394531 " fill-opacity="1" fill-rule="nonzero"/><path fill="#ffffff" d="M 105.148438 427.542969 L 105.148438 441.886719 C 105.148438 444.140625 106.972656 445.976562 109.234375 445.976562 C 111.488281 445.976562 113.324219 444.140625 113.324219 441.886719 L 113.324219 427.542969 C 113.324219 425.289062 111.488281 423.457031 109.234375 423.457031 C 106.972656 423.457031 105.148438 425.289062 105.148438 427.542969 Z M 105.148438 456.222656 L 105.148438 470.5625 C 105.148438 472.828125 106.972656 474.652344 109.234375 474.652344 C 111.488281 474.652344 113.324219 472.828125 113.324219 470.5625 L 113.324219 456.222656 C 113.324219 453.96875 111.488281 452.140625 109.234375 452.140625 C 106.972656 452.140625 105.148438 453.96875 105.148438 456.222656 Z M 105.148438 484.90625 L 105.148438 499.242188 C 105.148438 501.503906 106.972656 503.328125 109.234375 503.328125 C 111.488281 503.328125 113.324219 501.503906 113.324219 499.242188 L 113.324219 484.90625 C 113.324219 482.644531 111.488281 480.816406 109.234375 480.816406 C 106.972656 480.816406 105.148438 482.644531 105.148438 484.90625 Z M 105.148438 513.582031 L 105.148438 527.917969 C 105.148438 530.179688 106.972656 532.007812 109.234375 532.007812 C 111.488281 532.007812 113.324219 530.179688 113.324219 527.917969 L 113.324219 513.582031 C 113.324219 511.320312 111.488281 509.496094 109.234375 509.496094 C 106.972656 509.496094 105.148438 511.320312 105.148438 513.582031 Z M 105.148438 542.261719 L 105.148438 556.59375 C 105.148438 558.859375 106.972656 560.683594 109.234375 560.683594 C 111.488281 560.683594 113.324219 558.859375 113.324219 556.59375 L 113.324219 542.261719 C 113.324219 540.007812 111.488281 538.171875 109.234375 538.171875 C 106.972656 538.171875 105.148438 540.007812 105.148438 542.261719 Z M 105.148438 570.9375 L 105.148438 585.28125 C 105.148438 587.535156 106.972656 589.359375 109.234375 589.359375 C 111.488281 589.359375 113.324219 587.535156 113.324219 585.28125 L 113.324219 570.9375 C 113.324219 568.683594 111.488281 566.847656 109.234375 566.847656 C 106.972656 566.847656 105.148438 568.683594 105.148438 570.9375 Z M 105.148438 599.613281 L 105.148438 613.957031 C 105.148438 616.210938 106.972656 618.039062 109.234375 618.039062 C 111.488281 618.039062 113.324219 616.210938 113.324219 613.957031 L 113.324219 599.613281 C 113.324219 597.359375 111.488281 595.523438 109.234375 595.523438 C 106.972656 595.523438 105.148438 597.359375 105.148438 599.613281 Z M 105.148438 628.292969 L 105.148438 642.632812 C 105.148438 644.886719 106.972656 646.722656 109.234375 646.722656 C 111.488281 646.722656 113.324219 644.886719 113.324219 642.632812 L 113.324219 628.292969 C 113.324219 626.039062 111.488281 624.203125 109.234375 624.203125 C 106.972656 624.203125 105.148438 626.039062 105.148438 628.292969 " fill-opacity="1" fill-rule="nonzero"/><path fill="#ffffff" d="M 105.148438 656.96875 L 105.148438 663.785156 C 105.148438 666.039062 106.972656 667.871094 109.234375 667.871094 C 111.488281 667.871094 113.324219 666.039062 113.324219 663.785156 L 113.324219 656.96875 C 113.324219 654.714844 111.488281 652.886719 109.234375 652.886719 C 106.972656 652.886719 105.148438 654.714844 105.148438 656.96875 " fill-opacity="1" fill-rule="nonzero"/><path fill="#ffffff" d="M 74.3125 140.527344 L 74.3125 147.339844 C 74.3125 149.59375 76.140625 151.421875 78.402344 151.421875 C 80.65625 151.421875 82.488281 149.59375 82.488281 147.339844 L 82.488281 140.527344 C 82.488281 138.261719 80.65625 136.4375 78.402344 136.4375 C 76.140625 136.4375 74.3125 138.261719 74.3125 140.527344 " fill-opacity="1" fill-rule="nonzero"/><path fill="#ffffff" d="M 74.3125 161.148438 L 74.3125 174.957031 C 74.3125 177.21875 76.140625 179.046875 78.402344 179.046875 C 80.65625 179.046875 82.488281 177.21875 82.488281 174.957031 L 82.488281 161.148438 C 82.488281 158.894531 80.65625 157.058594 78.402344 157.058594 C 76.140625 157.058594 74.3125 158.894531 74.3125 161.148438 Z M 74.3125 188.773438 L 74.3125 202.582031 C 74.3125 204.847656 76.140625 206.671875 78.402344 206.671875 C 80.65625 206.671875 82.488281 204.847656 82.488281 202.582031 L 82.488281 188.773438 C 82.488281 186.511719 80.65625 184.6875 78.402344 184.6875 C 76.140625 184.6875 74.3125 186.511719 74.3125 188.773438 Z M 74.3125 216.402344 L 74.3125 230.210938 C 74.3125 232.464844 76.140625 234.296875 78.402344 234.296875 C 80.65625 234.296875 82.488281 232.464844 82.488281 230.210938 L 82.488281 216.402344 C 82.488281 214.136719 80.65625 212.3125 78.402344 212.3125 C 76.140625 212.3125 74.3125 214.136719 74.3125 216.402344 " fill-opacity="1" fill-rule="nonzero"/><path fill="#ffffff" d="M 74.3125 244.027344 L 74.3125 250.832031 C 74.3125 253.085938 76.140625 254.921875 78.402344 254.921875 C 80.65625 254.921875 82.488281 253.085938 82.488281 250.832031 L 82.488281 244.027344 C 82.488281 241.761719 80.65625 239.9375 78.402344 239.9375 C 76.140625 239.9375 74.3125 241.761719 74.3125 244.027344 " fill-opacity="1" fill-rule="nonzero"/><path fill="#ffffff" d="M 161.167969 612.871094 L 161.167969 619.6875 C 161.167969 621.941406 163 623.765625 165.253906 623.765625 C 167.515625 623.765625 169.34375 621.941406 169.34375 619.6875 L 169.34375 612.871094 C 169.34375 610.617188 167.515625 608.78125 165.253906 608.78125 C 163 608.78125 161.167969 610.617188 161.167969 612.871094 " fill-opacity="1" fill-rule="nonzero"/><path fill="#ffffff" d="M 161.167969 631.097656 L 161.167969 642.519531 C 161.167969 644.773438 163 646.609375 165.253906 646.609375 C 167.515625 646.609375 169.34375 644.773438 169.34375 642.519531 L 169.34375 631.097656 C 169.34375 628.84375 167.515625 627.007812 165.253906 627.007812 C 163 627.007812 161.167969 628.84375 161.167969 631.097656 Z M 161.167969 653.9375 L 161.167969 665.351562 C 161.167969 667.605469 163 669.441406 165.253906 669.441406 C 167.515625 669.441406 169.34375 667.605469 169.34375 665.351562 L 169.34375 653.9375 C 169.34375 651.675781 167.515625 649.851562 165.253906 649.851562 C 163 649.851562 161.167969 651.675781 161.167969 653.9375 " fill-opacity="1" fill-rule="nonzero"/><path fill="#ffffff" d="M 161.167969 676.773438 L 161.167969 683.578125 C 161.167969 685.839844 163 687.667969 165.253906 687.667969 C 167.515625 687.667969 169.34375 685.839844 169.34375 683.578125 L 169.34375 676.773438 C 169.34375 674.519531 167.515625 672.683594 165.253906 672.683594 C 163 672.683594 161.167969 674.519531 161.167969 676.773438 " fill-opacity="1" fill-rule="nonzero"/><path fill="#ffffff" d="M 187.316406 86.78125 L 187.316406 93.59375 C 187.316406 95.859375 189.148438 97.683594 191.402344 97.683594 C 193.664062 97.683594 195.492188 95.859375 195.492188 93.59375 L 195.492188 86.78125 C 195.492188 84.527344 193.664062 82.699219 191.402344 82.699219 C 189.148438 82.699219 187.316406 84.527344 187.316406 86.78125 " fill-opacity="1" fill-rule="nonzero"/><path fill="#ffffff" d="M 187.316406 108.046875 L 187.316406 122.484375 C 187.316406 124.75 189.148438 126.574219 191.402344 126.574219 C 193.664062 126.574219 195.492188 124.75 195.492188 122.484375 L 195.492188 108.046875 C 195.492188 105.78125 193.664062 103.957031 191.402344 103.957031 C 189.148438 103.957031 187.316406 105.78125 187.316406 108.046875 Z M 187.316406 136.9375 L 187.316406 151.386719 C 187.316406 153.640625 189.148438 155.464844 191.402344 155.464844 C 193.664062 155.464844 195.492188 153.640625 195.492188 151.386719 L 195.492188 136.9375 C 195.492188 134.683594 193.664062 132.847656 191.402344 132.847656 C 189.148438 132.847656 187.316406 134.683594 187.316406 136.9375 Z M 187.316406 165.828125 L 187.316406 180.277344 C 187.316406 182.53125 189.148438 184.367188 191.402344 184.367188 C 193.664062 184.367188 195.492188 182.53125 195.492188 180.277344 L 195.492188 165.828125 C 195.492188 163.574219 193.664062 161.738281 191.402344 161.738281 C 189.148438 161.738281 187.316406 163.574219 187.316406 165.828125 Z M 187.316406 194.71875 L 187.316406 209.167969 C 187.316406 211.421875 189.148438 213.257812 191.402344 213.257812 C 193.664062 213.257812 195.492188 211.421875 195.492188 209.167969 L 195.492188 194.71875 C 195.492188 192.464844 193.664062 190.636719 191.402344 190.636719 C 189.148438 190.636719 187.316406 192.464844 187.316406 194.71875 Z M 187.316406 223.617188 L 187.316406 238.058594 C 187.316406 240.320312 189.148438 242.148438 191.402344 242.148438 C 193.664062 242.148438 195.492188 240.320312 195.492188 238.058594 L 195.492188 223.617188 C 195.492188 221.355469 193.664062 219.527344 191.402344 219.527344 C 189.148438 219.527344 187.316406 221.355469 187.316406 223.617188 " fill-opacity="1" fill-rule="nonzero"/><path fill="#ffffff" d="M 187.316406 252.507812 L 187.316406 259.324219 C 187.316406 261.578125 189.148438 263.402344 191.402344 263.402344 C 193.664062 263.402344 195.492188 261.578125 195.492188 259.324219 L 195.492188 252.507812 C 195.492188 250.253906 193.664062 248.417969 191.402344 248.417969 C 189.148438 248.417969 187.316406 250.253906 187.316406 252.507812 " fill-opacity="1" fill-rule="nonzero"/><path fill="#ffffff" d="M 144.210938 10.414062 L 144.210938 17.230469 C 144.210938 19.484375 146.042969 21.320312 148.296875 21.320312 C 150.558594 21.320312 152.386719 19.484375 152.386719 17.230469 L 152.386719 10.414062 C 152.386719 8.160156 150.558594 6.335938 148.296875 6.335938 C 146.042969 6.335938 144.210938 8.160156 144.210938 10.414062 " fill-opacity="1" fill-rule="nonzero"/><path fill="#ffffff" d="M 144.210938 30.34375 L 144.210938 43.457031 C 144.210938 45.710938 146.042969 47.546875 148.296875 47.546875 C 150.558594 47.546875 152.386719 45.710938 152.386719 43.457031 L 152.386719 30.34375 C 152.386719 28.089844 150.558594 26.253906 148.296875 26.253906 C 146.042969 26.253906 144.210938 28.089844 144.210938 30.34375 Z M 144.210938 56.570312 L 144.210938 69.683594 C 144.210938 71.945312 146.042969 73.773438 148.296875 73.773438 C 150.558594 73.773438 152.386719 71.945312 152.386719 69.683594 L 152.386719 56.570312 C 152.386719 54.316406 150.558594 52.480469 148.296875 52.480469 C 146.042969 52.480469 144.210938 54.316406 144.210938 56.570312 " fill-opacity="1" fill-rule="nonzero"/><path fill="#ffffff" d="M 144.210938 82.796875 L 144.210938 89.613281 C 144.210938 91.867188 146.042969 93.703125 148.296875 93.703125 C 150.558594 93.703125 152.386719 91.867188 152.386719 89.613281 L 152.386719 82.796875 C 152.386719 80.542969 150.558594 78.707031 148.296875 78.707031 C 146.042969 78.707031 144.210938 80.542969 144.210938 82.796875 " fill-opacity="1" fill-rule="nonzero"/><path fill="#ffffff" d="M 33.988281 324.375 L 33.988281 331.179688 C 33.988281 333.441406 35.8125 335.269531 38.074219 335.269531 C 40.328125 335.269531 42.164062 333.441406 42.164062 331.179688 L 42.164062 324.375 C 42.164062 322.121094 40.328125 320.285156 38.074219 320.285156 C 35.8125 320.285156 33.988281 322.121094 33.988281 324.375 " fill-opacity="1" fill-rule="nonzero"/><path fill="#ffffff" d="M 33.988281 344.273438 L 33.988281 357.371094 C 33.988281 359.632812 35.8125 361.460938 38.074219 361.460938 C 40.328125 361.460938 42.164062 359.632812 42.164062 357.371094 L 42.164062 344.273438 C 42.164062 342.019531 40.328125 340.195312 38.074219 340.195312 C 35.8125 340.195312 33.988281 342.019531 33.988281 344.273438 Z M 33.988281 370.464844 L 33.988281 383.5625 C 33.988281 385.816406 35.8125 387.652344 38.074219 387.652344 C 40.328125 387.652344 42.164062 385.816406 42.164062 383.5625 L 42.164062 370.464844 C 42.164062 368.210938 40.328125 366.378906 38.074219 366.378906 C 35.8125 366.378906 33.988281 368.210938 33.988281 370.464844 Z M 33.988281 396.65625 L 33.988281 409.753906 C 33.988281 412.007812 35.8125 413.832031 38.074219 413.832031 C 40.328125 413.832031 42.164062 412.007812 42.164062 409.753906 L 42.164062 396.65625 C 42.164062 394.394531 40.328125 392.570312 38.074219 392.570312 C 35.8125 392.570312 33.988281 394.394531 33.988281 396.65625 Z M 33.988281 422.839844 L 33.988281 435.9375 C 33.988281 438.191406 35.8125 440.023438 38.074219 440.023438 C 40.328125 440.023438 42.164062 438.191406 42.164062 435.9375 L 42.164062 422.839844 C 42.164062 420.585938 40.328125 418.761719 38.074219 418.761719 C 35.8125 418.761719 33.988281 420.585938 33.988281 422.839844 Z M 33.988281 449.03125 L 33.988281 462.128906 C 33.988281 464.382812 35.8125 466.214844 38.074219 466.214844 C 40.328125 466.214844 42.164062 464.382812 42.164062 462.128906 L 42.164062 449.03125 C 42.164062 446.777344 40.328125 444.941406 38.074219 444.941406 C 35.8125 444.941406 33.988281 446.777344 33.988281 449.03125 Z M 33.988281 475.222656 L 33.988281 488.320312 C 33.988281 490.574219 35.8125 492.398438 38.074219 492.398438 C 40.328125 492.398438 42.164062 490.574219 42.164062 488.320312 L 42.164062 475.222656 C 42.164062 472.960938 40.328125 471.132812 38.074219 471.132812 C 35.8125 471.132812 33.988281 472.960938 33.988281 475.222656 " fill-opacity="1" fill-rule="nonzero"/><path fill="#ffffff" d="M 33.988281 501.40625 L 33.988281 508.222656 C 33.988281 510.476562 35.8125 512.308594 38.074219 512.308594 C 40.328125 512.308594 42.164062 510.476562 42.164062 508.222656 L 42.164062 501.40625 C 42.164062 499.152344 40.328125 497.324219 38.074219 497.324219 C 35.8125 497.324219 33.988281 499.152344 33.988281 501.40625 " fill-opacity="1" fill-rule="nonzero"/><path fill="#ffffff" d="M 81.394531 711.871094 L 81.394531 718.679688 C 81.394531 720.933594 83.21875 722.765625 85.480469 722.765625 C 87.734375 722.765625 89.5625 720.933594 89.5625 718.679688 L 89.5625 711.871094 C 89.5625 709.609375 87.734375 707.773438 85.480469 707.773438 C 83.21875 707.773438 81.394531 709.609375 81.394531 711.871094 " fill-opacity="1" fill-rule="nonzero"/><path fill="#ffffff" d="M 81.394531 730.660156 L 81.394531 742.640625 C 81.394531 744.90625 83.21875 746.730469 85.480469 746.730469 C 87.734375 746.730469 89.5625 744.90625 89.5625 742.640625 L 89.5625 730.660156 C 89.5625 728.40625 87.734375 726.570312 85.480469 726.570312 C 83.21875 726.570312 81.394531 728.40625 81.394531 730.660156 Z M 81.394531 754.625 L 81.394531 766.617188 C 81.394531 768.871094 83.21875 770.695312 85.480469 770.695312 C 87.734375 770.695312 89.5625 768.871094 89.5625 766.617188 L 89.5625 754.625 C 89.5625 752.371094 87.734375 750.535156 85.480469 750.535156 C 83.21875 750.535156 81.394531 752.371094 81.394531 754.625 " fill-opacity="1" fill-rule="nonzero"/><path fill="#ffffff" d="M 81.394531 778.597656 L 81.394531 785.402344 C 81.394531 787.667969 83.21875 789.492188 85.480469 789.492188 C 87.734375 789.492188 89.5625 787.667969 89.5625 785.402344 L 89.5625 778.597656 C 89.5625 776.335938 87.734375 774.507812 85.480469 774.507812 C 83.21875 774.507812 81.394531 776.335938 81.394531 778.597656 " fill-opacity="1" fill-rule="nonzero"/><path fill="#ffffff" d="M 620.835938 728.898438 C 620.835938 747.878906 605.457031 763.265625 586.488281 763.265625 L 223.285156 763.265625 C 204.316406 763.265625 188.925781 747.878906 188.925781 728.898438 L 188.925781 365.59375 C 188.925781 346.617188 204.316406 331.234375 223.285156 331.234375 L 586.488281 331.234375 C 605.457031 331.234375 620.835938 346.617188 620.835938 365.59375 L 620.835938 728.898438 " fill-opacity="1" fill-rule="nonzero"/><path fill="#282321" d="M 620.835938 419.234375 L 620.835938 365.59375 C 620.835938 346.617188 605.457031 331.234375 586.488281 331.234375 L 223.285156 331.234375 C 204.316406 331.234375 188.925781 346.617188 188.925781 365.59375 L 188.925781 419.234375 L 620.835938 419.234375 " fill-opacity="1" fill-rule="nonzero"/><path fill="#f1eeee" d="M 484.707031 378.734375 C 484.707031 387.25 477.804688 394.15625 469.292969 394.15625 C 460.777344 394.15625 453.875 387.25 453.875 378.734375 C 453.875 370.21875 460.777344 363.304688 469.292969 363.304688 C 477.804688 363.304688 484.707031 370.21875 484.707031 378.734375 " fill-opacity="1" fill-rule="nonzero"/><path fill="#f1eeee" d="M 536.710938 378.734375 C 536.710938 387.25 529.800781 394.15625 521.285156 394.15625 C 512.769531 394.15625 505.867188 387.25 505.867188 378.734375 C 505.867188 370.21875 512.769531 363.304688 521.285156 363.304688 C 529.800781 363.304688 536.710938 370.21875 536.710938 378.734375 " fill-opacity="1" fill-rule="nonzero"/><path fill="#f1eeee" d="M 588.695312 378.734375 C 588.695312 387.25 581.792969 394.15625 573.269531 394.15625 C 564.753906 394.15625 557.855469 387.25 557.855469 378.734375 C 557.855469 370.21875 564.753906 363.304688 573.269531 363.304688 C 581.792969 363.304688 588.695312 370.21875 588.695312 378.734375 " fill-opacity="1" fill-rule="nonzero"/><path fill="#231f20" d="M 539.453125 547.589844 L 601.554688 574.4375 L 601.554688 588.007812 L 539.453125 614.554688 L 539.453125 599.042969 L 582.230469 581.183594 L 539.453125 563.347656 L 539.453125 547.589844 " fill-opacity="1" fill-rule="nonzero"/><path fill="#231f20" d="M 270.320312 563.347656 L 227.542969 581.183594 L 270.320312 599.042969 L 270.320312 614.554688 L 208.21875 588.007812 L 208.21875 574.4375 L 270.320312 547.589844 L 270.320312 563.347656 " fill-opacity="1" fill-rule="nonzero"/><path fill="#231f20" d="M 279.144531 648.933594 L 263.878906 648.933594 L 315.777344 513.21875 L 330.933594 513.21875 L 279.144531 648.933594 " fill-opacity="1" fill-rule="nonzero"/><path fill="#231f20" d="M 343.402344 626.152344 C 337.550781 626.152344 332.589844 624.113281 328.496094 620.023438 C 324.398438 615.925781 322.359375 610.980469 322.359375 605.171875 L 322.359375 557.183594 C 322.359375 551.328125 324.40625 546.359375 328.519531 542.269531 C 332.644531 538.179688 337.605469 536.132812 343.402344 536.132812 C 349.246094 536.132812 354.207031 538.1875 358.265625 542.304688 C 362.335938 546.421875 364.378906 551.382812 364.378906 557.183594 L 364.378906 567.214844 L 350.625 567.214844 L 350.625 556.898438 C 350.625 554.796875 349.878906 552.996094 348.382812 551.5 C 346.886719 550.003906 345.085938 549.246094 342.976562 549.246094 C 340.875 549.246094 339.082031 550.003906 337.613281 551.5 C 336.136719 552.996094 335.398438 554.796875 335.398438 556.898438 L 335.398438 605.03125 C 335.398438 607.140625 336.136719 608.933594 337.613281 610.402344 C 339.082031 611.882812 340.875 612.613281 342.976562 612.613281 C 345.085938 612.613281 346.886719 611.882812 348.382812 610.402344 C 349.878906 608.933594 350.625 607.140625 350.625 605.03125 L 350.625 592.898438 L 364.378906 592.898438 L 364.378906 605.171875 C 364.378906 611.027344 362.320312 615.980469 358.195312 620.050781 C 354.082031 624.121094 349.148438 626.152344 343.402344 626.152344 " fill-opacity="1" fill-rule="nonzero"/><path fill="#231f20" d="M 403.234375 556.753906 C 403.234375 554.652344 402.496094 552.863281 401.027344 551.390625 C 399.554688 549.914062 397.765625 549.183594 395.65625 549.183594 C 393.554688 549.183594 391.753906 549.914062 390.257812 551.390625 C 388.761719 552.863281 388.015625 554.652344 388.015625 556.753906 L 388.015625 604.898438 C 388.015625 607 388.761719 608.789062 390.257812 610.261719 C 391.753906 611.738281 393.554688 612.46875 395.65625 612.46875 C 397.765625 612.46875 399.554688 611.738281 401.027344 610.261719 C 402.496094 608.789062 403.234375 607 403.234375 604.898438 Z M 396.011719 535.988281 C 401.855469 535.988281 406.824219 538.046875 410.910156 542.164062 C 415.007812 546.277344 417.058594 551.242188 417.058594 557.039062 L 417.058594 605.03125 C 417.058594 610.882812 415 615.855469 410.886719 619.953125 C 406.769531 624.042969 401.808594 626.089844 396.011719 626.089844 C 390.160156 626.089844 385.207031 624.023438 381.136719 619.910156 C 377.066406 615.800781 375.039062 610.839844 375.039062 605.03125 L 375.039062 557.039062 C 375.039062 551.1875 377.085938 546.226562 381.210938 542.128906 C 385.324219 538.039062 390.257812 535.988281 396.011719 535.988281 " fill-opacity="1" fill-rule="nonzero"/><path fill="#231f20" d="M 441.957031 611.917969 L 449.957031 611.917969 C 452.058594 611.917969 453.832031 611.152344 455.289062 609.628906 C 456.734375 608.113281 457.453125 606.324219 457.453125 604.265625 L 457.453125 558.234375 C 457.453125 556.132812 456.726562 554.324219 455.253906 552.835938 C 453.777344 551.328125 452.011719 550.582031 449.957031 550.582031 L 441.957031 550.582031 Z M 470.359375 603.980469 C 470.359375 609.777344 468.328125 614.742188 464.257812 618.855469 C 460.199219 622.980469 455.289062 625.039062 449.539062 625.039062 L 428.695312 625.039062 L 428.695312 537.039062 L 449.539062 537.039062 C 455.335938 537.039062 460.25 539.097656 464.304688 543.214844 C 468.347656 547.339844 470.359375 552.273438 470.359375 558.019531 L 470.359375 603.980469 " fill-opacity="1" fill-rule="nonzero"/><path fill="#231f20" d="M 482.019531 625.039062 L 482.019531 537.039062 L 519.753906 537.039062 L 519.753906 550.375 L 495.269531 550.375 L 495.269531 574.367188 L 513.164062 574.367188 L 513.164062 587.703125 L 495.269531 587.703125 L 495.269531 611.703125 L 519.753906 611.703125 L 519.753906 625.039062 L 482.019531 625.039062 " fill-opacity="1" fill-rule="nonzero"/><path fill="#80cc28" d="M 504.007812 115.367188 C 504.007812 153.390625 473.183594 184.222656 435.171875 184.222656 C 397.160156 184.222656 366.335938 153.390625 366.335938 115.367188 C 366.335938 77.335938 397.160156 46.511719 435.171875 46.511719 C 473.183594 46.511719 504.007812 77.335938 504.007812 115.367188 " fill-opacity="1" fill-rule="nonzero"/><path fill="#ffffff" d="M 408.925781 101.960938 C 408.925781 100.515625 408.496094 99.351562 407.625 98.46875 C 406.753906 97.578125 405.59375 97.140625 404.152344 97.140625 L 399.101562 97.140625 L 399.101562 114.886719 L 404.152344 114.886719 C 405.480469 114.886719 406.601562 114.414062 407.535156 113.46875 C 408.460938 112.527344 408.925781 111.394531 408.925781 110.066406 Z M 403.929688 88.597656 C 408 88.597656 411.25 89.878906 413.664062 92.445312 C 415.90625 94.894531 417.03125 98.023438 417.03125 101.835938 L 417.03125 109.890625 C 417.03125 113.550781 415.746094 116.675781 413.199219 119.269531 C 410.652344 121.871094 407.5625 123.171875 403.929688 123.171875 L 399.101562 123.171875 L 399.101562 144.0625 L 390.738281 144.0625 L 390.738281 88.597656 L 403.929688 88.597656 " fill-opacity="1" fill-rule="nonzero"/><path fill="#ffffff" d="M 432.082031 120.550781 L 432.082031 144.0625 L 423.710938 144.0625 L 423.710938 88.597656 L 432.082031 88.597656 L 432.082031 112.144531 L 442.164062 112.144531 L 442.164062 88.597656 L 450.535156 88.597656 L 450.535156 144.0625 L 442.164062 144.0625 L 442.164062 120.550781 L 432.082031 120.550781 " fill-opacity="1" fill-rule="nonzero"/><path fill="#ffffff" d="M 476.203125 101.960938 C 476.203125 100.515625 475.765625 99.351562 474.894531 98.46875 C 474.019531 97.578125 472.863281 97.140625 471.417969 97.140625 L 466.378906 97.140625 L 466.378906 114.886719 L 471.417969 114.886719 C 472.746094 114.886719 473.878906 114.414062 474.804688 113.46875 C 475.738281 112.527344 476.203125 111.394531 476.203125 110.066406 Z M 471.207031 88.597656 C 475.265625 88.597656 478.519531 89.878906 480.929688 92.445312 C 483.175781 94.894531 484.296875 98.023438 484.296875 101.835938 L 484.296875 109.890625 C 484.296875 113.550781 483.023438 116.675781 480.46875 119.269531 C 477.921875 121.871094 474.832031 123.171875 471.207031 123.171875 L 466.378906 123.171875 L 466.378906 144.0625 L 458.015625 144.0625 L 458.015625 88.597656 L 471.207031 88.597656 " fill-opacity="1" fill-rule="nonzero"/><path fill="#f14624" d="M 724.273438 258.582031 C 724.273438 305.738281 686.066406 343.964844 638.917969 343.964844 C 591.785156 343.964844 553.570312 305.738281 553.570312 258.582031 C 553.570312 211.429688 591.785156 173.203125 638.917969 173.203125 C 686.066406 173.203125 724.273438 211.429688 724.273438 258.582031 " fill-opacity="1" fill-rule="nonzero"/><path fill="#ffffff" d="M 588.054688 288.292969 C 584.394531 288.292969 581.292969 287.011719 578.738281 284.453125 C 576.183594 281.898438 574.898438 278.804688 574.898438 275.179688 L 574.898438 245.175781 C 574.898438 241.523438 576.183594 238.414062 578.757812 235.855469 C 581.328125 233.300781 584.429688 232.015625 588.054688 232.015625 C 591.707031 232.015625 594.804688 233.300781 597.34375 235.875 C 599.890625 238.449219 601.164062 241.550781 601.164062 245.175781 L 601.164062 251.445312 L 592.570312 251.445312 L 592.570312 244.996094 C 592.570312 243.679688 592.105469 242.554688 591.164062 241.621094 C 590.234375 240.6875 589.105469 240.222656 587.785156 240.222656 C 586.46875 240.222656 585.355469 240.6875 584.4375 241.621094 C 583.511719 242.554688 583.050781 243.679688 583.050781 244.996094 L 583.050781 275.089844 C 583.050781 276.410156 583.511719 277.523438 584.4375 278.441406 C 585.355469 279.367188 586.46875 279.832031 587.785156 279.832031 C 589.105469 279.832031 590.234375 279.367188 591.164062 278.441406 C 592.105469 277.523438 592.570312 276.410156 592.570312 275.089844 L 592.570312 267.5 L 601.164062 267.5 L 601.164062 275.179688 C 601.164062 278.832031 599.882812 281.933594 597.308594 284.472656 C 594.734375 287.019531 591.644531 288.292969 588.054688 288.292969 " fill-opacity="1" fill-rule="nonzero"/><path fill="#ffffff" d="M 634.269531 273.90625 C 634.332031 277.738281 633.332031 281.007812 631.285156 283.730469 C 629.941406 285.566406 628.042969 286.867188 625.585938 287.632812 C 624.273438 288.042969 622.734375 288.25 620.988281 288.25 C 617.738281 288.25 615.046875 287.4375 612.910156 285.835938 C 611.128906 284.515625 609.722656 282.726562 608.679688 280.460938 C 607.648438 278.199219 607.03125 275.597656 606.863281 272.675781 L 614.753906 272.105469 C 615.101562 275.304688 615.957031 277.628906 617.300781 279.074219 C 618.289062 280.160156 619.429688 280.675781 620.722656 280.613281 C 622.53125 280.5625 623.980469 279.660156 625.058594 277.941406 C 625.609375 277.085938 625.886719 275.875 625.886719 274.296875 C 625.886719 272.007812 624.855469 269.746094 622.777344 267.492188 C 621.140625 265.941406 618.691406 263.609375 615.414062 260.507812 C 612.660156 257.84375 610.71875 255.457031 609.582031 253.355469 C 608.351562 250.984375 607.738281 248.410156 607.738281 245.628906 C 607.738281 240.625 609.417969 236.828125 612.777344 234.253906 C 614.851562 232.703125 617.425781 231.929688 620.5 231.929688 C 623.457031 231.929688 625.976562 232.585938 628.085938 233.90625 C 629.71875 234.921875 631.042969 236.355469 632.050781 238.199219 C 633.066406 240.042969 633.671875 242.164062 633.875 244.5625 L 625.941406 246.011719 C 625.699219 243.757812 625.058594 242.003906 624.007812 240.746094 C 623.242188 239.839844 622.148438 239.386719 620.722656 239.386719 C 619.199219 239.386719 618.050781 240.0625 617.257812 241.40625 C 616.605469 242.484375 616.285156 243.832031 616.285156 245.441406 C 616.285156 247.953125 617.375 250.511719 619.539062 253.113281 C 620.347656 254.109375 621.585938 255.277344 623.214844 256.625 C 625.148438 258.234375 626.421875 259.359375 627.027344 260 C 629.085938 262.046875 630.652344 264.0625 631.765625 266.058594 C 632.289062 266.992188 632.71875 267.847656 633.039062 268.640625 C 633.832031 270.601562 634.242188 272.355469 634.269531 273.90625 " fill-opacity="1" fill-rule="nonzero"/><path fill="#ffffff" d="M 667.371094 273.90625 C 667.433594 277.738281 666.4375 281.007812 664.386719 283.730469 C 663.042969 285.566406 661.148438 286.867188 658.6875 287.632812 C 657.371094 288.042969 655.839844 288.25 654.085938 288.25 C 650.84375 288.25 648.152344 287.4375 646.015625 285.835938 C 644.234375 284.515625 642.828125 282.726562 641.785156 280.460938 C 640.742188 278.199219 640.136719 275.597656 639.96875 272.675781 L 647.859375 272.105469 C 648.207031 275.304688 649.050781 277.628906 650.40625 279.074219 C 651.394531 280.160156 652.542969 280.675781 653.824219 280.613281 C 655.632812 280.5625 657.085938 279.660156 658.164062 277.941406 C 658.714844 277.085938 659 275.875 659 274.296875 C 659 272.007812 657.957031 269.746094 655.890625 267.492188 C 654.246094 265.941406 651.796875 263.609375 648.519531 260.507812 C 645.773438 257.84375 643.824219 255.457031 642.683594 253.355469 C 641.457031 250.984375 640.847656 248.410156 640.847656 245.628906 C 640.847656 240.625 642.523438 236.828125 645.890625 234.253906 C 647.964844 232.703125 650.53125 231.929688 653.601562 231.929688 C 656.558594 231.929688 659.089844 232.585938 661.191406 233.90625 C 662.820312 234.921875 664.148438 236.355469 665.164062 238.199219 C 666.167969 240.042969 666.773438 242.164062 666.980469 244.5625 L 659.042969 246.011719 C 658.804688 243.757812 658.164062 242.003906 657.113281 240.746094 C 656.355469 239.839844 655.25 239.386719 653.824219 239.386719 C 652.304688 239.386719 651.144531 240.0625 650.351562 241.40625 C 649.710938 242.484375 649.398438 243.832031 649.398438 245.441406 C 649.398438 247.953125 650.476562 250.511719 652.640625 253.113281 C 653.453125 254.109375 654.679688 255.277344 656.320312 256.625 C 658.253906 258.234375 659.527344 259.359375 660.140625 260 C 662.179688 262.046875 663.765625 264.0625 664.878906 266.058594 C 665.402344 266.992188 665.824219 267.847656 666.144531 268.640625 C 666.9375 270.601562 667.34375 272.355469 667.371094 273.90625 " fill-opacity="1" fill-rule="nonzero"/><path fill="#ffffff" d="M 685.96875 279.695312 C 689.761719 279.695312 691.660156 277.921875 691.660156 274.394531 L 691.660156 271.152344 C 691.660156 265.515625 688.710938 262.699219 682.804688 262.699219 L 682.804688 255.597656 C 685.996094 255.597656 688.347656 254.707031 689.867188 252.925781 C 691.265625 251.324219 691.972656 249.070312 691.972656 246.183594 L 691.972656 244.910156 C 691.972656 241.316406 690.394531 239.519531 687.234375 239.519531 C 685.476562 239.519531 684.195312 240.1875 683.375 241.523438 C 682.761719 242.539062 682.457031 243.867188 682.457031 245.496094 L 682.457031 246.929688 L 674.34375 246.929688 L 674.34375 245.65625 C 674.34375 241.738281 675.34375 238.546875 677.328125 236.097656 C 679.574219 233.292969 682.742188 231.882812 686.839844 231.882812 C 690.734375 231.882812 693.839844 233.203125 696.175781 235.832031 C 698.285156 238.199219 699.335938 241.15625 699.335938 244.695312 L 699.335938 247.019531 C 699.335938 250.441406 698.3125 253.398438 696.273438 255.875 C 695.390625 256.933594 694.367188 257.824219 693.199219 258.554688 C 695.65625 259.929688 697.554688 262.023438 698.898438 264.828125 C 699.601562 266.261719 699.949219 268 699.949219 270.046875 L 699.949219 274.386719 C 699.949219 278.449219 698.5625 281.78125 695.78125 284.390625 C 693.121094 286.902344 689.921875 288.160156 686.183594 288.160156 C 682.519531 288.160156 679.429688 286.867188 676.882812 284.300781 C 674.34375 281.726562 673.070312 278.636719 673.070312 275.046875 L 673.070312 273.683594 L 680.960938 273.070312 L 681.140625 275 C 681.257812 276.375 681.746094 277.496094 682.609375 278.378906 C 683.472656 279.25 684.585938 279.695312 685.96875 279.695312 " fill-opacity="1" fill-rule="nonzero"/><path fill="#80cc28" d="M 377.34375 312.285156 C 377.34375 370.851562 329.894531 418.324219 271.34375 418.324219 C 212.804688 418.324219 165.34375 370.851562 165.34375 312.285156 C 165.34375 253.726562 212.804688 206.253906 271.34375 206.253906 C 329.894531 206.253906 377.34375 253.726562 377.34375 312.285156 " fill-opacity="1" fill-rule="nonzero"/><path fill="#ffffff" d="M 206.765625 320.195312 L 206.765625 347.902344 L 196.90625 347.902344 L 196.90625 282.519531 L 206.765625 282.519531 L 206.765625 310.28125 L 218.664062 310.28125 L 218.664062 282.519531 L 228.523438 282.519531 L 228.523438 347.902344 L 218.664062 347.902344 L 218.664062 320.195312 L 206.765625 320.195312 " fill-opacity="1" fill-rule="nonzero"/><path fill="#ffffff" d="M 246.933594 292.425781 L 236.449219 292.425781 L 236.449219 282.519531 L 267.230469 282.519531 L 267.230469 292.425781 L 256.792969 292.425781 L 256.792969 347.902344 L 246.933594 347.902344 L 246.933594 292.425781 " fill-opacity="1" fill-rule="nonzero"/><path fill="#ffffff" d="M 285.015625 347.902344 L 275.15625 347.902344 L 275.15625 282.46875 L 289.308594 282.46875 L 298.488281 329.46875 L 307.316406 282.46875 L 320.90625 282.46875 L 320.90625 347.902344 L 311.046875 347.902344 L 311.046875 306.777344 L 302.488281 347.902344 L 294.5625 347.902344 L 285.015625 306.886719 L 285.015625 347.902344 " fill-opacity="1" fill-rule="nonzero"/><path fill="#ffffff" d="M 356.585938 347.902344 L 329.722656 347.902344 L 329.722656 282.519531 L 339.582031 282.519531 L 339.582031 338.09375 L 356.585938 338.09375 L 356.585938 347.902344 " fill-opacity="1" fill-rule="nonzero"/><g clip-path="url(#d6bf668ccb)"><path fill="#80cc28" d="M 798.621094 466.519531 C 798.621094 503.785156 768.421875 534.003906 731.15625 534.003906 C 693.902344 534.003906 663.703125 503.785156 663.703125 466.519531 C 663.703125 429.253906 693.902344 399.046875 731.15625 399.046875 C 768.421875 399.046875 798.621094 429.253906 798.621094 466.519531 " fill-opacity="1" fill-rule="nonzero"/></g><path fill="#ffffff" d="M 705.730469 437.878906 C 705.730469 431.828125 707.316406 427.617188 710.488281 425.21875 C 713.488281 422.921875 718.574219 421.769531 725.75 421.769531 L 725.75 430.304688 C 721.964844 430.304688 719.402344 430.832031 718.058594 431.875 C 716.703125 432.917969 716.027344 435.054688 716.027344 438.269531 L 716.027344 455.75 C 716.027344 457.832031 715.492188 459.855469 714.40625 461.816406 C 713.230469 463.945312 711.734375 465.378906 709.898438 466.117188 C 711.601562 466.769531 713.058594 468.140625 714.273438 470.234375 C 715.445312 472.140625 716.027344 474.234375 716.027344 476.488281 L 716.027344 494.039062 C 716.027344 497.296875 716.703125 499.429688 718.058594 500.425781 C 719.402344 501.433594 721.964844 501.929688 725.75 501.929688 L 725.75 510.476562 C 718.574219 510.476562 713.488281 509.324219 710.488281 507.019531 C 707.316406 504.628906 705.730469 500.40625 705.730469 494.367188 L 705.730469 481.78125 C 705.730469 477.253906 705.535156 474.449219 705.144531 473.359375 C 704.234375 470.882812 702.273438 469.53125 699.273438 469.316406 L 699.273438 462.992188 C 702.273438 462.722656 704.234375 461.363281 705.144531 458.875 C 705.535156 457.832031 705.730469 455.054688 705.730469 450.527344 L 705.730469 437.878906 " fill-opacity="1" fill-rule="nonzero"/><path fill="#ffffff" d="M 755.746094 461.226562 C 756.53125 462.582031 758.179688 463.355469 760.699219 463.578125 L 760.699219 469.90625 C 758.828125 470.074219 757.527344 470.457031 756.789062 471.046875 C 756.050781 471.632812 755.425781 472.59375 754.890625 473.949219 C 754.632812 474.644531 754.464844 475.6875 754.375 477.078125 C 754.332031 477.726562 754.3125 479.492188 754.3125 482.359375 L 754.3125 494.945312 C 754.3125 500.996094 752.703125 505.210938 749.476562 507.605469 C 746.574219 509.867188 741.488281 511 734.230469 511 L 734.230469 502.519531 C 738.050781 502.519531 740.625 502.019531 741.953125 501.015625 C 743.277344 500.015625 743.9375 497.886719 743.9375 494.625 L 743.9375 477.078125 C 743.9375 475.082031 744.515625 473.023438 745.664062 470.910156 C 746.824219 468.808594 748.285156 467.402344 750.074219 466.707031 C 748.382812 466.011719 746.929688 464.640625 745.738281 462.601562 C 744.542969 460.558594 743.9375 458.464844 743.9375 456.335938 L 743.9375 438.785156 C 743.9375 435.527344 743.277344 433.398438 741.953125 432.398438 C 740.625 431.402344 738.050781 430.902344 734.230469 430.902344 L 734.230469 422.351562 C 741.398438 422.351562 746.484375 423.507812 749.476562 425.808594 C 752.703125 428.203125 754.3125 432.417969 754.3125 438.464844 L 754.3125 451.117188 C 754.3125 453.941406 754.332031 455.6875 754.375 456.335938 C 754.507812 458.253906 754.964844 459.882812 755.746094 461.226562 " fill-opacity="1" fill-rule="nonzero"/><g clip-path="url(#8abe7a0043)"><path fill="#f14624" d="M 143.308594 437.601562 C 143.308594 474.109375 113.730469 503.703125 77.234375 503.703125 C 40.738281 503.703125 11.152344 474.109375 11.152344 437.601562 C 11.152344 401.09375 40.738281 371.5 77.234375 371.5 C 113.730469 371.5 143.308594 401.09375 143.308594 437.601562 " fill-opacity="1" fill-rule="nonzero"/></g><path fill="#ffffff" d="M 92.011719 419.082031 L 129.140625 435.132812 L 129.140625 443.25 L 92.011719 459.117188 L 92.011719 449.84375 L 117.589844 439.171875 L 92.011719 428.496094 L 92.011719 419.082031 " fill-opacity="1" fill-rule="nonzero"/><path fill="#ffffff" d="M 58.28125 428.496094 L 32.714844 439.171875 L 58.28125 449.84375 L 58.28125 459.117188 L 21.152344 443.25 L 21.152344 435.132812 L 58.28125 419.082031 L 58.28125 428.496094 " fill-opacity="1" fill-rule="nonzero"/><path fill="#ffffff" d="M 61.765625 479.667969 L 52.636719 479.667969 L 83.664062 398.527344 L 92.722656 398.527344 L 61.765625 479.667969 " fill-opacity="1" fill-rule="nonzero"/></svg>